<svg xmlns="http://www.w3.org/2000/svg" viewBox="0 0 49.65 4.72"><defs><style>.cls-1{fill-rule:evenodd;}</style></defs><title>Asset 8logo_</title><g id="Layer_2" data-name="Layer 2"><g id="Layer_1-2" data-name="Layer 1"><path class="cls-1" d="M33.09,1.21a33.73,33.73,0,0,1,6.09,1s2.72.72,5.94,1.63L38,1s-4.84.26-4.89.24Z"/><path class="cls-1" d="M42.19,2.21a22.65,22.65,0,0,1,2.41-.7c1.42-.32,3-.52,3-.52a49.06,49.06,0,0,0-7.11.52s1.62.7,1.65.7Z"/><path class="cls-1" d="M36.65,3.75a5.13,5.13,0,0,1,1.11-.67,13,13,0,0,1,1.37-.5l1.14.3c-1.09.48-1.28.94-1.28.94s-2.28-.09-2.34-.07Z"/><path class="cls-1" d="M37.74,2.19l-.93,0c-3.19.9-3.67,1.59-3.67,1.59l2.55.09a5.63,5.63,0,0,1,2.75-1.35l-.7-.3Z"/><path class="cls-1" d="M29.21,3.44a.8.8,0,0,0,.21.79,2.86,2.86,0,0,0,1.12.46H44.76c2-.22,2.23-.62,2.23-.62l2.64-2.89C49.79.15,48.48,0,48.48,0L33.24,0a2.5,2.5,0,0,0-1.61.73L29.21,3.44ZM30,3.23s-.35.48-.06.71a3.1,3.1,0,0,0,1.29.29H44.33c.58-.05,1.16-.07,1.46-.14.66-.15.76-.36.76-.36l2.32-2.41c0-.26.15-.48,0-.61C48.57.4,47.77.45,47.77.45L33.63.41a2.63,2.63,0,0,0-1.56.65L30,3.23Z"/><path class="cls-1" d="M21,2.42s-.48.08-.34-.23L21.26,1s.35-.76-1.14-1l-1.91,4.7L22.06,3a.56.56,0,0,1,.75,0l2.38,1.72h1.74L24,2.49s-.28-.15,0-.33L27.8.43H25.58L21,2.42Z"/><path class="cls-1" d="M19,1.18,17.87,3.65a1.78,1.78,0,0,1-1.27,1H8.71L10.65.07c1.46.11,1.3.85,1.3.85.09.19-.31.76-.31.76H12a1.79,1.79,0,0,1,1.18-.47s5.84,0,5.82,0ZM16.93,2.49s.32-.32-.28-.34H11.88s-.35,0-.41.2l-.58,1.26s0,.12.2.14h5.17s.65-1.25.67-1.26Z"/><path class="cls-1" d="M2,.06H8.84c1.06.19.89.89.89.89L9.33,2.1H7.59l.53-.85C8.15,1,7.81,1,7.81,1H3.27L2.79,2c-.09.21.19.18.19.18l.87,0A2.74,2.74,0,0,1,5,2.6L8,4.66H6.21L3.15,2.51c-.31-.28-.45-.17-.45-.17-.25.08-.24.43-.24.43A2.62,2.62,0,0,1,0,4.71S2,.07,2,.06Z"/></g></g></svg>