<svg xmlns="http://www.w3.org/2000/svg" viewBox="0 0 44.09 16.79"><defs><style>.cls-1{fill:#060000;}</style></defs><title>Asset 5logo_</title><g id="Layer_2" data-name="Layer 2"><g id="Layer_1-2" data-name="Layer 1"><polygon class="cls-1" points="11.39 0.02 14.61 0.02 9.34 16.62 5.38 16.62 0 0.11 3.25 0.12 7.46 12.81 11.39 0.02"/><rect class="cls-1" x="11.4" width="29.86" height="2.86"/><path class="cls-1" d="M15.13,16.61H12.22L15.47,5.35h3l3.25,11.26h-3l-.34-1.47h-3Zm2.8-3.86-1-4-.94,4Z"/><polygon class="cls-1" points="25.52 5.35 28.77 11.47 28.67 8.9 28.67 5.35 31.53 5.35 31.53 16.61 28.72 16.61 25.47 10.49 25.62 13.06 25.62 16.61 22.76 16.61 22.76 5.35 25.52 5.35"/><path class="cls-1" d="M40.79,8.59H38a.81.81,0,0,0-.44-.73,1,1,0,0,0-.74-.24c-.66,0-1,.22-1,.67s.59.79,1.77,1.16C39.89,10.14,41,11.33,41,13c-.07,2.48-1.48,3.75-4.24,3.79a3.84,3.84,0,0,1-4-3.67h2.86a1.76,1.76,0,0,0,.49.92,1.43,1.43,0,0,0,.84.24c.85,0,1.28-.26,1.28-.79s-.57-.84-1.72-1.16c-2.34-.7-3.5-1.92-3.5-3.67q.09-3.49,3.89-3.61A3.6,3.6,0,0,1,40.79,8.59Z"/><path class="cls-1" d="M44,5.06h-.13a.91.91,0,1,1-.9-.91.91.91,0,0,1,.9.91h.26a1.17,1.17,0,1,0-1.16,1.17,1.16,1.16,0,0,0,1.16-1.17Z"/><path class="cls-1" d="M43.58,5.63v0h-.3l-.44-.57h-.11v.37c0,.12,0,.17.17.17v0h-.52v0c.13,0,.18-.06.16-.19V4.63c0-.12,0-.18-.16-.17v0h.52c.31,0,.47.11.47.32s-.11.28-.33.31l.38.48A.19.19,0,0,0,43.58,5.63Zm-.85-1.07V5c.29,0,.44-.08.44-.27s-.11-.25-.32-.25S42.72,4.51,42.73,4.56Z"/></g></g></svg>