<svg xmlns="http://www.w3.org/2000/svg" viewBox="0 0 44.82 23.42"><title>Asset 3logo_</title><g id="Layer_2" data-name="Layer 2"><g id="Layer_1-2" data-name="Layer 1"><path d="M7.51,14.34a.61.61,0,1,0,.64.61A.6.6,0,0,0,7.51,14.34Zm0,1.05A.44.44,0,1,1,8,15,.44.44,0,0,1,7.51,15.39Z"/><polygon points="13.7 12.19 10.6 12.19 10.96 6.81 8.95 12.19 6.07 12.19 10.63 0.04 13.69 0.04 13.34 5.49 15.38 0.04 18.25 0.04 13.7 12.19"/><polygon points="14.07 12.19 18.63 0.04 21.5 0.04 16.94 12.19 14.07 12.19"/><path d="M5.74,8c-4,4.72-7.8,11-4.45,13.88s7.29,1.14,10.05,0S44.63,7.55,44.63,7.55c.3-.15.24-.33-.12-.24l-33.24,9C7.07,17.49,2.28,14.93,5.74,8Z"/><path d="M7.62,15a.15.15,0,0,0,.16-.17c0-.16-.1-.2-.28-.2H7.25v.66h.17V15h0l.15.28h.19Zm-.11-.1H7.42v-.16H7.5s.11,0,.11.07S7.57,14.89,7.51,14.89Z"/><path d="M36.39,0a.6.6,0,0,0-.63.61A.64.64,0,0,0,37,.61.61.61,0,0,0,36.39,0Zm0,1.05A.43.43,0,0,1,36,.61a.43.43,0,0,1,.44-.44.44.44,0,0,1,.44.44A.43.43,0,0,1,36.39,1.05Z"/><path d="M36.5.66a.16.16,0,0,0,.16-.18c0-.16-.1-.2-.28-.2h-.25V.94h.17V.66h0l.15.28h.19ZM36.39.55H36.3V.4h.08s.1,0,.1.07S36.45.55,36.39.55Z"/><path d="M34.5,2.06l.77-2H26.51l-3,3.64L24.88,0H22L17.45,12.19h2.88l1.93-5.08.13,5.08,8.81,0L32,9.83H28.69l1.1-2.94h2.76l.85-2.27H30.64l.95-2.56Zm-9.26,9.32-.18-6.33L29.4.28Z"/></g></g></svg>