<?xml version="1.0" encoding="utf-8"?>
<!-- Generator: Adobe Illustrator 23.0.1, SVG Export Plug-In . SVG Version: 6.00 Build 0)  -->
<svg version="1.1" id="Layer_1" xmlns="http://www.w3.org/2000/svg" xmlns:xlink="http://www.w3.org/1999/xlink" x="0px" y="0px"
	 viewBox="0 0 1231 464.9" style="enable-background:new 0 0 1231 464.9;" xml:space="preserve">
<style type="text/css">
	.st0{fill:#FF701F;stroke:#000000;stroke-miterlimit:10;}
	.st1{fill:#E0E0E0;stroke:#000000;stroke-miterlimit:10;}
	.st2{fill:#FFFFFF;stroke:#000000;stroke-miterlimit:10;}
	.st3{fill:none;stroke:#000000;stroke-miterlimit:10;}
	.st4{font-family:'GoodTimesRg-Regular';}
	.st5{font-size:14px;}
	.st6{clip-path:url(#SVGID_2_);enable-background:new    ;}
	.st7{font-family:'Roboto-Medium';}
	.st8{font-size:12px;}
	.st9{clip-path:url(#SVGID_4_);enable-background:new    ;}
	.st10{clip-path:url(#SVGID_6_);enable-background:new    ;}
	.st11{clip-path:url(#SVGID_8_);enable-background:new    ;}
	.st12{clip-path:url(#SVGID_10_);enable-background:new    ;}
	.st13{clip-path:url(#SVGID_12_);enable-background:new    ;}
	.st14{clip-path:url(#SVGID_14_);enable-background:new    ;}
	.st15{font-family:'Helvetica-Bold';}
	.st16{clip-path:url(#SVGID_16_);enable-background:new    ;}
	.st17{font-family:'Helvetica';}
	.st18{clip-path:url(#SVGID_18_);enable-background:new    ;}
	.st19{clip-path:url(#SVGID_20_);enable-background:new    ;}
	.st20{clip-path:url(#SVGID_22_);enable-background:new    ;}
	.st21{clip-path:url(#SVGID_24_);enable-background:new    ;}
	.st22{clip-path:url(#SVGID_26_);enable-background:new    ;}
	.st23{clip-path:url(#SVGID_28_);enable-background:new    ;}
	.st24{clip-path:url(#SVGID_30_);enable-background:new    ;}
	.st25{clip-path:url(#SVGID_32_);enable-background:new    ;}
	.st26{clip-path:url(#SVGID_34_);enable-background:new    ;}
	.st27{clip-path:url(#SVGID_36_);enable-background:new    ;}
	.st28{clip-path:url(#SVGID_38_);enable-background:new    ;}
	.st29{clip-path:url(#SVGID_40_);enable-background:new    ;}
	.st30{clip-path:url(#SVGID_42_);enable-background:new    ;}
	.st31{clip-path:url(#SVGID_44_);enable-background:new    ;}
	.st32{clip-path:url(#SVGID_46_);enable-background:new    ;}
	.st33{clip-path:url(#SVGID_48_);enable-background:new    ;}
	.st34{clip-path:url(#SVGID_50_);enable-background:new    ;}
	.st35{clip-path:url(#SVGID_52_);enable-background:new    ;}
	.st36{clip-path:url(#SVGID_54_);enable-background:new    ;}
	.st37{clip-path:url(#SVGID_56_);enable-background:new    ;}
	.st38{clip-path:url(#SVGID_58_);enable-background:new    ;}
	.st39{clip-path:url(#SVGID_60_);enable-background:new    ;}
	.st40{clip-path:url(#SVGID_62_);enable-background:new    ;}
</style>
<g>
	<rect x="0" y="-0.5" class="st0" width="1231" height="464.9"/>
</g>
<g>
	<path class="st0" d="M0,0"/>
	<path pointer-events="none" class="st1" d="M45.7,64.5v-26h160v26"/>
	<path pointer-events="none" class="st2" d="M45.7,64.5v26h160v-26"/>
	<path pointer-events="none" class="st3" d="M45.7,64.5h160"/>
	<text transform="matrix(1 0 0 1 87.688 56.9727)" class="st4 st5">Brands</text>
	<g>
		<defs>
			<rect id="SVGID_1_" x="49.7" y="69.5" width="152" height="26"/>
		</defs>
		<clipPath id="SVGID_2_">
			<use xlink:href="#SVGID_1_"  style="overflow:visible;"/>
		</clipPath>
		<g class="st6">
			<text transform="matrix(1 0 0 1 51.2188 81.9727)" class="st7 st8">brand</text>
		</g>
	</g>
	<path pointer-events="none" class="st1" d="M305.4,64.5v-26h160v26"/>
	<path pointer-events="none" class="st2" d="M305.4,64.5v26h160v-26"/>
	<path pointer-events="none" class="st3" d="M305.4,64.5h160"/>
	<text transform="matrix(1 0 0 1 348.535 56.9727)" class="st4 st5">Models</text>
	<g>
		<defs>
			<rect id="SVGID_3_" x="309.4" y="69.5" width="152" height="26"/>
		</defs>
		<clipPath id="SVGID_4_">
			<use xlink:href="#SVGID_3_"  style="overflow:visible;"/>
		</clipPath>
		<g class="st9">
			<text transform="matrix(1 0 0 1 310.9105 81.9727)" class="st7 st8">model</text>
		</g>
	</g>
	<path pointer-events="none" class="st1" d="M555.6,64.5v-26h160v26"/>
	<path pointer-events="none" class="st2" d="M555.6,64.5v26h160v-26"/>
	<path pointer-events="none" class="st3" d="M555.6,64.5h160"/>
	<text transform="matrix(1 0 0 1 601.4536 56.9727)" class="st4 st5">Styles</text>
	<g>
		<defs>
			<rect id="SVGID_5_" x="559.6" y="69.5" width="152" height="26"/>
		</defs>
		<clipPath id="SVGID_6_">
			<use xlink:href="#SVGID_5_"  style="overflow:visible;"/>
		</clipPath>
		<g class="st10">
			<text transform="matrix(1 0 0 1 561.0566 81.9727)" class="st7 st8">style</text>
		</g>
	</g>
	<path pointer-events="none" class="st1" d="M804.1,64.5v-26h160v26"/>
	<path pointer-events="none" class="st2" d="M804.1,64.5v78h160v-78"/>
	<path pointer-events="none" class="st3" d="M804.1,64.5h160"/>
	<text transform="matrix(1 0 0 1 853.7916 56.9727)" class="st4 st5">Shoes</text>
	<g>
		<defs>
			<rect id="SVGID_7_" x="808.1" y="69.5" width="152" height="26"/>
		</defs>
		<clipPath id="SVGID_8_">
			<use xlink:href="#SVGID_7_"  style="overflow:visible;"/>
		</clipPath>
		<g class="st11">
			<text transform="matrix(1 0 0 1 809.5665 81.9727)" class="st7 st8">name</text>
		</g>
	</g>
	<g>
		<defs>
			<rect id="SVGID_9_" x="808.1" y="95.5" width="152" height="26"/>
		</defs>
		<clipPath id="SVGID_10_">
			<use xlink:href="#SVGID_9_"  style="overflow:visible;"/>
		</clipPath>
		<g class="st12">
			<text transform="matrix(1 0 0 1 809.5665 107.9727)" class="st7 st8">description</text>
		</g>
	</g>
	<g>
		<defs>
			<rect id="SVGID_11_" x="808.1" y="121.5" width="152" height="26"/>
		</defs>
		<clipPath id="SVGID_12_">
			<use xlink:href="#SVGID_11_"  style="overflow:visible;"/>
		</clipPath>
		<g class="st13">
			<text transform="matrix(1 0 0 1 809.5665 133.9727)" class="st7 st8">image</text>
		</g>
	</g>
	<path pointer-events="none" class="st3" d="M202.6,77.5h20c6.7,0,13.3,0,20,0h20c6.7,0,13.3,0,20,0h20"/>
	<path pointer-events="none" class="st3" d="M294.6,81.5v-8 M302.6,73.5l-8,4l8,4"/>
	<path pointer-events="none" class="st3" d="M462.6,77.5h20c6.7,0,13.3,0,20,0h10c6.7,0,13.3,0,20,0h20"/>
	<path pointer-events="none" class="st3" d="M544.6,81.5v-8 M552.6,73.5l-8,4l8,4"/>
	<path pointer-events="none" class="st3" d="M712.6,77.5h20c6.7,0,13.3,0,20,0h9.5c6.3,0,12.8,0,19.5,0h20"/>
	<path pointer-events="none" class="st3" d="M793.6,81.5v-8 M801.6,73.5l-8,4l8,4"/>
	<path pointer-events="none" class="st3" d="M204.6,320.5h20c6.7,0,13.3-0.5,19.9-1.6l18.2-2.9c6.6-1,13.2-1.6,19.9-1.6h20"/>
	<path pointer-events="none" class="st3" d="M294.6,318.5v-8 M302.6,310.5l-8,4l8,4"/>
	<path pointer-events="none" class="st1" d="M552.6,271.5v-26h160v26"/>
	<path pointer-events="none" class="st2" d="M552.6,271.5v92h160v-92"/>
	<path pointer-events="none" class="st3" d="M552.6,271.5h160"/>
	<text transform="matrix(1 0 0 1 603.0864 263.9727)" class="st4 st5">Styles</text>
	<path pointer-events="none" class="st3" d="M712.6,301.5h-160"/>
	<g>
		<defs>
			<rect id="SVGID_13_" x="587.6" y="272.5" width="120" height="28"/>
		</defs>
		<clipPath id="SVGID_14_">
			<use xlink:href="#SVGID_13_"  style="overflow:visible;"/>
		</clipPath>
		<g class="st14">
			<text transform="matrix(1 0 0 1 589.1484 289.9727)" class="st15 st8">id:INT</text>
		</g>
	</g>
	<path pointer-events="none" class="st3" d="M582.6,271.5v30"/>
	<g>
		<defs>
			<rect id="SVGID_15_" x="557.6" y="272.5" width="20" height="28"/>
		</defs>
		<clipPath id="SVGID_16_">
			<use xlink:href="#SVGID_15_"  style="overflow:visible;"/>
		</clipPath>
		<g class="st16">
			<text transform="matrix(1 0 0 1 559.1484 289.9727)" class="st17 st8">PK</text>
		</g>
	</g>
	<path pointer-events="none" class="st3" d="M552.6,327.5"/>
	<g>
		<defs>
			<rect id="SVGID_17_" x="587.6" y="307.5" width="120" height="24"/>
		</defs>
		<clipPath id="SVGID_18_">
			<use xlink:href="#SVGID_17_"  style="overflow:visible;"/>
		</clipPath>
		<g class="st18">
			<text transform="matrix(1 0 0 1 589.1484 319.9727)" class="st7 st8">model_id:INT</text>
		</g>
	</g>
	<path pointer-events="none" class="st3" d="M582.6,301.5v26"/>
	<g>
		<defs>
			<rect id="SVGID_19_" x="557.6" y="307.5" width="20" height="24"/>
		</defs>
		<clipPath id="SVGID_20_">
			<use xlink:href="#SVGID_19_"  style="overflow:visible;"/>
		</clipPath>
		<g class="st19">
			<text transform="matrix(1 0 0 1 559.1484 319.9727)" class="st17 st8">FK</text>
		</g>
	</g>
	<path pointer-events="none" class="st3" d="M552.6,353.5"/>
	<g>
		<defs>
			<rect id="SVGID_21_" x="587.6" y="333.5" width="120" height="24"/>
		</defs>
		<clipPath id="SVGID_22_">
			<use xlink:href="#SVGID_21_"  style="overflow:visible;"/>
		</clipPath>
		<g class="st20">
			<text transform="matrix(1 0 0 1 589.1484 345.9727)" class="st17 st8">style:(VARCHAR)(10)</text>
		</g>
	</g>
	<path pointer-events="none" class="st3" d="M582.6,327.5v26"/>
	<path pointer-events="none" class="st3" d="M552.6,363.5"/>
	<path pointer-events="none" class="st3" d="M582.6,353.5v10"/>
	<path pointer-events="none" class="st1" d="M802.6,274.5v-26h180v26"/>
	<path pointer-events="none" class="st2" d="M802.6,274.5v144h180v-144"/>
	<path pointer-events="none" class="st3" d="M802.6,274.5h180"/>
	<text transform="matrix(1 0 0 1 865.3003 266.9727)" class="st4 st5">Shoes</text>
	<path pointer-events="none" class="st3" d="M982.6,304.5h-180"/>
	<g>
		<defs>
			<rect id="SVGID_23_" x="837.6" y="275.5" width="140" height="28"/>
		</defs>
		<clipPath id="SVGID_24_">
			<use xlink:href="#SVGID_23_"  style="overflow:visible;"/>
		</clipPath>
		<g class="st21">
			<text transform="matrix(1 0 0 1 839.1484 292.9727)" class="st15 st8">id:INT</text>
		</g>
	</g>
	<path pointer-events="none" class="st3" d="M832.6,274.5v30"/>
	<g>
		<defs>
			<rect id="SVGID_25_" x="807.6" y="275.5" width="20" height="28"/>
		</defs>
		<clipPath id="SVGID_26_">
			<use xlink:href="#SVGID_25_"  style="overflow:visible;"/>
		</clipPath>
		<g class="st22">
			<text transform="matrix(1 0 0 1 809.1484 292.9727)" class="st17 st8">PK</text>
		</g>
	</g>
	<path pointer-events="none" class="st3" d="M802.6,330.5"/>
	<g>
		<defs>
			<rect id="SVGID_27_" x="837.6" y="310.5" width="140" height="24"/>
		</defs>
		<clipPath id="SVGID_28_">
			<use xlink:href="#SVGID_27_"  style="overflow:visible;"/>
		</clipPath>
		<g class="st23">
			<text transform="matrix(1 0 0 1 839.1484 322.9727)" class="st7 st8">style_id:INT</text>
		</g>
	</g>
	<path pointer-events="none" class="st3" d="M832.6,304.5v26"/>
	<g>
		<defs>
			<rect id="SVGID_29_" x="807.6" y="310.5" width="20" height="24"/>
		</defs>
		<clipPath id="SVGID_30_">
			<use xlink:href="#SVGID_29_"  style="overflow:visible;"/>
		</clipPath>
		<g class="st24">
			<text transform="matrix(1 0 0 1 809.1484 322.9727)" class="st17 st8">FK</text>
		</g>
	</g>
	<path pointer-events="none" class="st3" d="M802.6,356.5"/>
	<g>
		<defs>
			<rect id="SVGID_31_" x="837.6" y="336.5" width="140" height="24"/>
		</defs>
		<clipPath id="SVGID_32_">
			<use xlink:href="#SVGID_31_"  style="overflow:visible;"/>
		</clipPath>
		<g class="st25">
			<text transform="matrix(1 0 0 1 839.1484 348.9727)" class="st7 st8">name:TEXT</text>
		</g>
	</g>
	<path pointer-events="none" class="st3" d="M832.6,330.5v26"/>
	<path pointer-events="none" class="st3" d="M802.6,382.5"/>
	<g>
		<defs>
			<rect id="SVGID_33_" x="837.6" y="362.5" width="140" height="24"/>
		</defs>
		<clipPath id="SVGID_34_">
			<use xlink:href="#SVGID_33_"  style="overflow:visible;"/>
		</clipPath>
		<g class="st26">
			<text transform="matrix(1 0 0 1 839.1484 374.9727)" class="st7 st8">description:LONGTEXT</text>
		</g>
	</g>
	<path pointer-events="none" class="st3" d="M832.6,356.5v26"/>
	<path pointer-events="none" class="st3" d="M802.6,408.5"/>
	<g>
		<defs>
			<rect id="SVGID_35_" x="837.6" y="388.5" width="140" height="24"/>
		</defs>
		<clipPath id="SVGID_36_">
			<use xlink:href="#SVGID_35_"  style="overflow:visible;"/>
		</clipPath>
		<g class="st27">
			<text transform="matrix(1 0 0 1 839.1484 400.9727)" class="st7 st8">image:(VARCHAR)(20)</text>
		</g>
	</g>
	<path pointer-events="none" class="st3" d="M832.6,382.5v26"/>
	<path pointer-events="none" class="st3" d="M802.6,418.5"/>
	<path pointer-events="none" class="st3" d="M832.6,408.5v10"/>
	<path pointer-events="none" class="st1" d="M302.6,271.5v-26h170v26"/>
	<path pointer-events="none" class="st2" d="M302.6,271.5v92h170v-92"/>
	<path pointer-events="none" class="st3" d="M302.6,271.5h170"/>
	<text transform="matrix(1 0 0 1 353.583 263.9727)" class="st4 st5">Models</text>
	<path pointer-events="none" class="st3" d="M472.6,301.5h-170"/>
	<g>
		<defs>
			<rect id="SVGID_37_" x="337.6" y="272.5" width="130" height="28"/>
		</defs>
		<clipPath id="SVGID_38_">
			<use xlink:href="#SVGID_37_"  style="overflow:visible;"/>
		</clipPath>
		<g class="st28">
			<text transform="matrix(1 0 0 1 339.1484 289.9727)" class="st15 st8">id:INT</text>
		</g>
	</g>
	<path pointer-events="none" class="st3" d="M332.6,271.5v30"/>
	<g>
		<defs>
			<rect id="SVGID_39_" x="307.6" y="272.5" width="20" height="28"/>
		</defs>
		<clipPath id="SVGID_40_">
			<use xlink:href="#SVGID_39_"  style="overflow:visible;"/>
		</clipPath>
		<g class="st29">
			<text transform="matrix(1 0 0 1 309.1484 289.9727)" class="st17 st8">PK</text>
		</g>
	</g>
	<path pointer-events="none" class="st3" d="M302.6,327.5"/>
	<g>
		<defs>
			<rect id="SVGID_41_" x="337.6" y="307.5" width="130" height="24"/>
		</defs>
		<clipPath id="SVGID_42_">
			<use xlink:href="#SVGID_41_"  style="overflow:visible;"/>
		</clipPath>
		<g class="st30">
			<text transform="matrix(1 0 0 1 339.1484 319.9727)" class="st17 st8">brand_id:INT</text>
		</g>
	</g>
	<path pointer-events="none" class="st3" d="M332.6,301.5v26"/>
	<g>
		<defs>
			<rect id="SVGID_43_" x="307.6" y="307.5" width="20" height="24"/>
		</defs>
		<clipPath id="SVGID_44_">
			<use xlink:href="#SVGID_43_"  style="overflow:visible;"/>
		</clipPath>
		<g class="st31">
			<text transform="matrix(1 0 0 1 309.1484 319.9727)" class="st17 st8">FK</text>
		</g>
	</g>
	<path pointer-events="none" class="st3" d="M302.6,353.5"/>
	<g>
		<defs>
			<rect id="SVGID_45_" x="337.6" y="333.5" width="130" height="24"/>
		</defs>
		<clipPath id="SVGID_46_">
			<use xlink:href="#SVGID_45_"  style="overflow:visible;"/>
		</clipPath>
		<g class="st32">
			<text transform="matrix(1 0 0 1 339.1484 345.9727)" class="st7 st8">model:(VARCHAR)(15)</text>
		</g>
	</g>
	<path pointer-events="none" class="st3" d="M332.6,327.5v26"/>
	<path pointer-events="none" class="st3" d="M302.6,363.5"/>
	<path pointer-events="none" class="st3" d="M332.6,353.5v10"/>
	<path pointer-events="none" class="st1" d="M42.6,270.5v-26h160v26"/>
	<path pointer-events="none" class="st2" d="M42.6,270.5v66h160v-66"/>
	<path pointer-events="none" class="st3" d="M42.6,270.5h160"/>
	<text transform="matrix(1 0 0 1 87.9692 262.9727)" class="st4 st5">Brands</text>
	<path pointer-events="none" class="st3" d="M202.6,300.5h-160"/>
	<g>
		<defs>
			<rect id="SVGID_47_" x="77.6" y="271.5" width="120" height="28"/>
		</defs>
		<clipPath id="SVGID_48_">
			<use xlink:href="#SVGID_47_"  style="overflow:visible;"/>
		</clipPath>
		<g class="st33">
			<text transform="matrix(1 0 0 1 79.1484 288.9727)" class="st15 st8">id:INT</text>
		</g>
	</g>
	<path pointer-events="none" class="st3" d="M72.6,270.5v30"/>
	<g>
		<defs>
			<rect id="SVGID_49_" x="47.6" y="271.5" width="20" height="28"/>
		</defs>
		<clipPath id="SVGID_50_">
			<use xlink:href="#SVGID_49_"  style="overflow:visible;"/>
		</clipPath>
		<g class="st34">
			<text transform="matrix(1 0 0 1 49.1484 288.9727)" class="st17 st8">PK</text>
		</g>
	</g>
	<path pointer-events="none" class="st3" d="M42.6,326.5"/>
	<g>
		<defs>
			<rect id="SVGID_51_" x="77.6" y="306.5" width="120" height="24"/>
		</defs>
		<clipPath id="SVGID_52_">
			<use xlink:href="#SVGID_51_"  style="overflow:visible;"/>
		</clipPath>
		<g class="st35">
			<text transform="matrix(1 0 0 1 79.1484 318.9727)" class="st7 st8">brand:(VARCHAR)(10)</text>
		</g>
	</g>
	<path pointer-events="none" class="st3" d="M72.6,300.5v26"/>
	<path pointer-events="none" class="st3" d="M42.6,336.5"/>
	<path pointer-events="none" class="st3" d="M72.6,326.5v10"/>
	<path pointer-events="none" class="st3" d="M472.6,323.5h20c6.7,0,13.3,0,20,0h5c3.3,0,8.3,0,15,0h20"/>
	<path pointer-events="none" class="st3" d="M544.6,327.5v-8 M552.6,319.5l-8,4l8,4"/>
	<path pointer-events="none" class="st3" d="M712.6,320.5h20c6.7,0,13.3-0.3,20-1l10.1-1c6.6-0.7,13.3-1,20-1h20"/>
	<path pointer-events="none" class="st3" d="M794.6,321.5v-8 M802.6,313.5l-8,4l8,4 M0,0"/>
	<path pointer-events="none" class="st1" d="M1063.6,295.5v-26h160v26"/>
	<path pointer-events="none" class="st2" d="M1063.6,295.5v92h160v-92"/>
	<path pointer-events="none" class="st3" d="M1063.6,295.5h160"/>
	<text transform="matrix(1 0 0 1 1114.0864 287.9727)" class="st4 st5">links</text>
	<path pointer-events="none" class="st3" d="M1223.6,325.5h-160"/>
	<g>
		<defs>
			<rect id="SVGID_53_" x="1098.6" y="296.5" width="120" height="28"/>
		</defs>
		<clipPath id="SVGID_54_">
			<use xlink:href="#SVGID_53_"  style="overflow:visible;"/>
		</clipPath>
		<g class="st36">
			<text transform="matrix(1 0 0 1 1100.1484 313.9727)" class="st15 st8">id:INT</text>
		</g>
	</g>
	<path pointer-events="none" class="st3" d="M1093.6,295.5v30"/>
	<g>
		<defs>
			<rect id="SVGID_55_" x="1068.6" y="296.5" width="20" height="28"/>
		</defs>
		<clipPath id="SVGID_56_">
			<use xlink:href="#SVGID_55_"  style="overflow:visible;"/>
		</clipPath>
		<g class="st37">
			<text transform="matrix(1 0 0 1 1070.1484 313.9727)" class="st17 st8">PK</text>
		</g>
	</g>
	<path pointer-events="none" class="st3" d="M1063.6,351.5"/>
	<g>
		<defs>
			<rect id="SVGID_57_" x="1098.6" y="331.5" width="120" height="24"/>
		</defs>
		<clipPath id="SVGID_58_">
			<use xlink:href="#SVGID_57_"  style="overflow:visible;"/>
		</clipPath>
		<g class="st38">
			<text transform="matrix(1 0 0 1 1100.1484 343.9727)" class="st7 st8">shoe_id:INT</text>
		</g>
	</g>
	<path pointer-events="none" class="st3" d="M1093.6,325.5v26"/>
	<g>
		<defs>
			<rect id="SVGID_59_" x="1068.6" y="331.5" width="20" height="24"/>
		</defs>
		<clipPath id="SVGID_60_">
			<use xlink:href="#SVGID_59_"  style="overflow:visible;"/>
		</clipPath>
		<g class="st39">
			<text transform="matrix(1 0 0 1 1070.1484 343.9727)" class="st17 st8">FK</text>
		</g>
	</g>
	<path pointer-events="none" class="st3" d="M1063.6,377.5"/>
	<g>
		<defs>
			<rect id="SVGID_61_" x="1098.6" y="357.5" width="120" height="24"/>
		</defs>
		<clipPath id="SVGID_62_">
			<use xlink:href="#SVGID_61_"  style="overflow:visible;"/>
		</clipPath>
		<g class="st40">
			<text transform="matrix(1 0 0 1 1100.1484 369.9727)" class="st17 st8">url:(VARCHAR)(10)</text>
		</g>
	</g>
	<path pointer-events="none" class="st3" d="M1093.6,351.5v26"/>
	<path pointer-events="none" class="st3" d="M1063.6,387.5"/>
	<path pointer-events="none" class="st3" d="M1093.6,377.5v10"/>
	<path pointer-events="none" class="st3" d="M983.6,347.5h20c6.7,0,13.3,0,20,0h5c3.3,0,8.3,0,15,0h20"/>
	<path pointer-events="none" class="st3" d="M1055.6,351.5v-8 M1063.6,343.5l-8,4l8,4"/>
</g>
</svg>
